# Blender 3.5.1
# www.blender.org
mtllib maschine_draft.mtl
o Cube
v 0.450660 -0.782914 -0.048666
v 0.450659 -0.079998 0.515198
v 0.450660 -0.782914 0.515198
v -0.167259 -0.782914 -0.063656
v -0.167259 -0.079998 0.515198
v -0.167259 -0.782914 0.515198
v 0.450660 -0.079998 0.080596
v -0.167259 -0.079998 0.054606
v 0.450660 -0.200986 -0.048666
v -0.167259 -0.205135 -0.063656
vn -0.0000 -0.0000 1.0000
vn -1.0000 -0.0000 -0.0000
vn -0.0000 -1.0000 -0.0000
vn 1.0000 -0.0000 -0.0000
vn 0.0243 -0.0000 -0.9997
vn -0.0000 1.0000 -0.0000
vn 0.0287 0.7298 -0.6831
vn 0.0130 0.6868 -0.7267
vt 0.375000 0.500000
vt 0.625000 0.750000
vt 0.375000 0.750000
vt 0.125000 0.500000
vt 0.375000 0.250000
vt 0.625000 1.000000
vt 0.625000 0.000000
vt 0.875000 0.750000
vt 0.375000 1.000000
vt 0.375000 0.000000
vt 0.125000 0.750000
vt 0.625000 0.557311
vt 0.000000 0.000000
vt 0.625000 0.198924
vt 0.875000 0.551076
vt 0.000000 0.000000
vt 0.592123 0.500000
vt 0.000000 0.000000
vt 0.590995 0.250000
vt 0.000000 0.000000
s 0
usemtl Material
f 3/3/1 2/2/1 5/6/1 6/9/1
f 6/10/2 5/7/2 8/14/2 10/19/2 4/5/2
f 4/4/3 1/1/3 3/3/3 6/11/3
f 1/1/4 9/17/4 7/12/4 2/2/4 3/3/4
f 4/5/5 10/19/5 9/17/5 1/1/5
f 7/12/6 8/15/6 5/8/6 2/2/6
f 7/13/7 9/18/7 8/16/7
f 9/18/8 10/20/8 8/16/8
o Cube.001
v 0.493270 0.594158 0.002917
v 0.495130 0.582470 0.209708
v 0.493270 0.027275 -0.003172
v 0.495130 0.015587 0.203619
v -0.201821 0.594068 0.005027
v -0.199961 0.582380 0.211818
v -0.201821 0.027185 -0.001062
v -0.199961 0.015496 0.205729
vn 1.0000 0.0001 -0.0090
vn -0.0000 -0.9984 -0.0564
vn -1.0000 -0.0001 0.0090
vn -0.0000 0.9984 0.0564
vn -0.0030 0.0107 -0.9999
vn 0.0030 -0.0107 0.9999
vt 0.375000 0.000000
vt 0.375000 1.000000
vt 0.125000 0.750000
vt 0.625000 0.000000
vt 0.625000 1.000000
vt 0.875000 0.750000
vt 0.375000 0.250000
vt 0.125000 0.500000
vt 0.625000 0.250000
vt 0.875000 0.500000
vt 0.375000 0.750000
vt 0.625000 0.750000
vt 0.375000 0.500000
vt 0.625000 0.500000
s 0
f 11/21/9 12/24/9 14/29/9 13/27/9
f 13/27/10 14/29/10 18/34/10 17/33/10
f 17/33/11 18/34/11 16/32/11 15/31/11
f 15/31/12 16/32/12 12/25/12 11/22/12
f 13/28/13 17/33/13 15/31/13 11/23/13
f 18/34/14 14/30/14 12/26/14 16/32/14
